<mxfile host="app.diagrams.net" modified="2023-06-07T11:17:57.142Z" agent="Mozilla/5.0 (Windows NT 10.0; Win64; x64) AppleWebKit/537.36 (KHTML, like Gecko) Chrome/114.0.0.0 Safari/537.36 Edg/114.0.1823.37" version="21.3.7" etag="HdzXCQJS-tH-w5d3EQVZ" type="github">
  <diagram name="Page-1" id="8ngTOurLQr-HlDjsHh3x">
    <mxGraphModel>
      <root>
        <mxCell id="0" />
        <mxCell id="1" parent="0" />
      </root>
    </mxGraphModel>
  </diagram>
</mxfile>
